<mxfile host="app.diagrams.net" modified="2023-10-10T19:55:17.711Z" agent="Mozilla/5.0 (X11; Ubuntu; Linux i686; rv:109.0) Gecko/20100101 Firefox/113.0" etag="nMuOdvNGS-cKS33dd0bQ" version="22.0.4" type="github">
  <diagram name="Page-1" id="MOzRj5IIMRCOu1qpYBlB">
    <mxGraphModel dx="3088" dy="4327" grid="1" gridSize="10" guides="1" tooltips="1" connect="1" arrows="1" fold="1" page="1" pageScale="1" pageWidth="850" pageHeight="1100" math="0" shadow="0">
      <root>
        <mxCell id="0" />
        <mxCell id="1" parent="0" />
        <mxCell id="6euIK-9lR_IWJC9QJkAk-1" value="&lt;font style=&quot;font-size: 45px;&quot;&gt;Universo de &lt;font color=&quot;#8ae234&quot;&gt;Shrek&lt;/font&gt;&lt;/font&gt;" style="rounded=0;whiteSpace=wrap;html=1;gradientColor=#F9FFF7;fillColor=#A300A3;" parent="1" vertex="1">
          <mxGeometry x="440" y="-2250" width="440" height="60" as="geometry" />
        </mxCell>
        <mxCell id="6euIK-9lR_IWJC9QJkAk-63" value="" style="edgeStyle=orthogonalEdgeStyle;rounded=0;orthogonalLoop=1;jettySize=auto;html=1;" parent="1" source="6euIK-9lR_IWJC9QJkAk-2" target="6euIK-9lR_IWJC9QJkAk-16" edge="1">
          <mxGeometry relative="1" as="geometry" />
        </mxCell>
        <mxCell id="6euIK-9lR_IWJC9QJkAk-2" value="Humano" style="rounded=0;whiteSpace=wrap;html=1;strokeColor=#cc0000;fillColor=#FFF4C3;fillStyle=dashed;gradientColor=#0000FF;strokeWidth=9;fontSize=25;" parent="1" vertex="1">
          <mxGeometry x="-120" y="-2020" width="270" height="70" as="geometry" />
        </mxCell>
        <mxCell id="6euIK-9lR_IWJC9QJkAk-65" value="" style="edgeStyle=orthogonalEdgeStyle;rounded=0;orthogonalLoop=1;jettySize=auto;html=1;" parent="1" source="6euIK-9lR_IWJC9QJkAk-3" target="6euIK-9lR_IWJC9QJkAk-22" edge="1">
          <mxGeometry relative="1" as="geometry" />
        </mxCell>
        <mxCell id="6euIK-9lR_IWJC9QJkAk-3" value="Animal" style="rounded=0;whiteSpace=wrap;html=1;strokeColor=#66FFFF;fillColor=#009900;gradientColor=#FF801F;fontSize=25;strokeWidth=9;" parent="1" vertex="1">
          <mxGeometry x="770" y="-2050" width="240" height="70" as="geometry" />
        </mxCell>
        <mxCell id="6euIK-9lR_IWJC9QJkAk-4" value="Criatura Magica" style="rounded=0;whiteSpace=wrap;html=1;gradientColor=#A136FF;fillColor=#e9b96e;fontSize=25;strokeWidth=9;" parent="1" vertex="1">
          <mxGeometry x="1560" y="-2060" width="250" height="70" as="geometry" />
        </mxCell>
        <mxCell id="6euIK-9lR_IWJC9QJkAk-67" style="edgeStyle=orthogonalEdgeStyle;rounded=0;orthogonalLoop=1;jettySize=auto;html=1;" parent="1" source="6euIK-9lR_IWJC9QJkAk-16" target="6euIK-9lR_IWJC9QJkAk-37" edge="1">
          <mxGeometry relative="1" as="geometry" />
        </mxCell>
        <mxCell id="6euIK-9lR_IWJC9QJkAk-16" value="&lt;font style=&quot;font-size: 25px;&quot;&gt;Masculino&lt;/font&gt;" style="rounded=0;whiteSpace=wrap;html=1;strokeWidth=11;fontSize=25;" parent="1" vertex="1">
          <mxGeometry x="-85.63" y="-1840" width="190" height="60" as="geometry" />
        </mxCell>
        <mxCell id="6euIK-9lR_IWJC9QJkAk-17" value="&lt;font style=&quot;font-size: 25px;&quot;&gt;Fenimino&lt;/font&gt;" style="rounded=0;whiteSpace=wrap;html=1;strokeWidth=9;fontSize=25;" parent="1" vertex="1">
          <mxGeometry x="-410" y="-770" width="860" height="60" as="geometry" />
        </mxCell>
        <mxCell id="6euIK-9lR_IWJC9QJkAk-21" value="" style="endArrow=none;dashed=1;html=1;rounded=0;" parent="1" edge="1">
          <mxGeometry width="50" height="50" relative="1" as="geometry">
            <mxPoint x="440" y="-432" as="sourcePoint" />
            <mxPoint x="440" y="-2200" as="targetPoint" />
          </mxGeometry>
        </mxCell>
        <mxCell id="6euIK-9lR_IWJC9QJkAk-66" value="" style="edgeStyle=orthogonalEdgeStyle;rounded=0;orthogonalLoop=1;jettySize=auto;html=1;" parent="1" source="6euIK-9lR_IWJC9QJkAk-22" target="6euIK-9lR_IWJC9QJkAk-58" edge="1">
          <mxGeometry relative="1" as="geometry" />
        </mxCell>
        <mxCell id="6euIK-9lR_IWJC9QJkAk-22" value="Masculino" style="rounded=0;whiteSpace=wrap;html=1;strokeWidth=9;fontSize=25;" parent="1" vertex="1">
          <mxGeometry x="750" y="-1870" width="260" height="60" as="geometry" />
        </mxCell>
        <mxCell id="6euIK-9lR_IWJC9QJkAk-31" value="" style="endArrow=classic;startArrow=classic;html=1;rounded=0;" parent="1" edge="1">
          <mxGeometry width="50" height="50" relative="1" as="geometry">
            <mxPoint x="1300" y="-1620" as="sourcePoint" />
            <mxPoint x="1290" y="30" as="targetPoint" />
            <Array as="points">
              <mxPoint x="1300" y="-2180" />
            </Array>
          </mxGeometry>
        </mxCell>
        <mxCell id="6euIK-9lR_IWJC9QJkAk-37" value="&lt;div class=&quot;DoxwDb&quot;&gt;&lt;br&gt;&lt;/div&gt;&lt;div class=&quot;DoxwDb&quot;&gt;&lt;div class=&quot;QpPSMb&quot;&gt;-Brogan     &lt;/div&gt;-Cookie&lt;div class=&quot;QpPSMb&quot;&gt;&lt;div class=&quot;DoxwDb&quot;&gt;&lt;div role=&quot;heading&quot; data-attrid=&quot;title&quot; aria-level=&quot;2&quot; class=&quot;PZPZlf ssJ7i B5dxMb&quot;&gt;&lt;div class=&quot;QpPSMb&quot;&gt;&lt;div class=&quot;DoxwDb&quot;&gt;&lt;div role=&quot;heading&quot; data-attrid=&quot;title&quot; aria-level=&quot;2&quot; class=&quot;PZPZlf ssJ7i B5dxMb&quot;&gt;-Arthur Pendragon&lt;/div&gt;  &lt;/div&gt;   &lt;/div&gt;&lt;/div&gt;&lt;div role=&quot;heading&quot; data-attrid=&quot;title&quot; aria-level=&quot;2&quot; class=&quot;PZPZlf ssJ7i B5dxMb&quot;&gt;-Muffin Man&lt;br&gt;&lt;/div&gt;  &lt;/div&gt;   &lt;/div&gt;-Rumpelstiltskin&lt;br&gt;Capitão dos Guardas&lt;br&gt;-Geppetto&lt;br&gt;-Shrek&lt;/div&gt;&lt;div class=&quot;DoxwDb&quot;&gt;-Lorde Farquaad&lt;/div&gt;&lt;div class=&quot;DoxwDb&quot;&gt;-Thelonious&lt;div class=&quot;QpPSMb&quot;&gt;&lt;p class=&quot;LC20lb MBeuO DKV0Md&quot;&gt;-Rei Harold&lt;br&gt;-Capitão Gancho&lt;br&gt;-Príncipe Encantado&lt;br&gt;-Peter Pan&lt;br&gt;-Robin Hood&lt;br&gt;-Gretched&lt;br&gt;-Humpty Dumpty &lt;br&gt;-Merlin&lt;br&gt;-Black knight     &lt;br&gt;&lt;/p&gt;&lt;p class=&quot;LC20lb MBeuO DKV0Md&quot;&gt;&lt;br&gt;&lt;/p&gt;&lt;p class=&quot;LC20lb MBeuO DKV0Md&quot;&gt;&lt;br&gt;&lt;/p&gt;&lt;/div&gt;&lt;div class=&quot;PZPZlf ssJ7i B5dxMb&quot; aria-level=&quot;2&quot; data-attrid=&quot;title&quot; role=&quot;heading&quot;&gt;&lt;div class=&quot;QpPSMb&quot;&gt;&lt;div class=&quot;DoxwDb&quot;&gt;&lt;div class=&quot;PZPZlf ssJ7i B5dxMb&quot; aria-level=&quot;2&quot; data-attrid=&quot;title&quot; role=&quot;heading&quot;&gt;&lt;div class=&quot;QpPSMb&quot;&gt;&lt;div class=&quot;DoxwDb&quot;&gt;&lt;div class=&quot;PZPZlf ssJ7i B5dxMb&quot; aria-level=&quot;2&quot; data-attrid=&quot;title&quot; role=&quot;heading&quot;&gt;&lt;div class=&quot;QpPSMb&quot;&gt;&lt;div class=&quot;DoxwDb&quot;&gt;&lt;div class=&quot;PZPZlf ssJ7i B5dxMb&quot; aria-level=&quot;2&quot; data-attrid=&quot;title&quot; role=&quot;heading&quot;&gt;&lt;div class=&quot;QpPSMb&quot;&gt;&lt;div class=&quot;DoxwDb&quot;&gt;&lt;div class=&quot;PZPZlf ssJ7i B5dxMb&quot; aria-level=&quot;2&quot; data-attrid=&quot;title&quot; role=&quot;heading&quot;&gt;&lt;div class=&quot;QpPSMb&quot;&gt;&lt;div class=&quot;DoxwDb&quot;&gt;&lt;p&gt;  &lt;/p&gt;&lt;/div&gt;&lt;p&gt;   &lt;/p&gt;&lt;/div&gt;&lt;/div&gt;&lt;p&gt;  &lt;/p&gt;&lt;/div&gt;&lt;p&gt;   &lt;/p&gt;&lt;/div&gt;&lt;/div&gt;&lt;p&gt;  &lt;/p&gt;&lt;/div&gt;&lt;p&gt;   &lt;/p&gt;&lt;/div&gt;&lt;/div&gt;&lt;p&gt;  &lt;/p&gt;&lt;/div&gt;&lt;p&gt;   &lt;/p&gt;&lt;/div&gt;&lt;/div&gt;&lt;p&gt;  &lt;/p&gt;&lt;/div&gt;&lt;p&gt;   &lt;/p&gt;&lt;/div&gt;&lt;/div&gt;&lt;p&gt;  &lt;/p&gt;&lt;/div&gt;&lt;div class=&quot;QpPSMb&quot;&gt;&lt;p&gt;   &lt;/p&gt;&lt;/div&gt;" style="whiteSpace=wrap;html=1;aspect=fixed;fontSize=25;" parent="1" vertex="1">
          <mxGeometry x="-420" y="-1630" width="850" height="850" as="geometry" />
        </mxCell>
        <mxCell id="6euIK-9lR_IWJC9QJkAk-40" value="&lt;p&gt;-Fiona &lt;/p&gt;&lt;div&gt;&lt;p&gt;-Lillian&lt;/p&gt;&lt;/div&gt;&lt;div&gt;&lt;p&gt;-Dona do Burro&lt;/p&gt;&lt;/div&gt;&lt;div&gt;&lt;p&gt;-Doris&lt;/p&gt;&lt;p&gt;-Branca de Neve&lt;/p&gt;&lt;p&gt;-Fã de luta-livre&lt;/p&gt;&lt;/div&gt;&lt;div&gt;&lt;p&gt;-Bela Adormecida     &lt;/p&gt;&lt;/div&gt;&lt;div&gt;&lt;p&gt;-Mabel&lt;/p&gt;&lt;/div&gt;&lt;div&gt;&lt;p&gt;-Fada Madrinha     &lt;/p&gt;&lt;/div&gt;&lt;div&gt;&lt;p&gt;-Cinderella&lt;/p&gt;&lt;/div&gt;&lt;div&gt;&lt;p&gt;&lt;br&gt;&lt;/p&gt;&lt;/div&gt;&lt;div&gt;&lt;p&gt;&lt;br&gt; &lt;/p&gt;&lt;/div&gt;" style="whiteSpace=wrap;html=1;aspect=fixed;fontSize=25;" parent="1" vertex="1">
          <mxGeometry x="-390" y="-710" width="850" height="850" as="geometry" />
        </mxCell>
        <mxCell id="6euIK-9lR_IWJC9QJkAk-45" value="Masculino" style="rounded=0;whiteSpace=wrap;html=1;strokeWidth=9;fontSize=25;" parent="1" vertex="1">
          <mxGeometry x="1380" y="-1910" width="260" height="60" as="geometry" />
        </mxCell>
        <mxCell id="6euIK-9lR_IWJC9QJkAk-47" style="edgeStyle=orthogonalEdgeStyle;rounded=0;orthogonalLoop=1;jettySize=auto;html=1;exitX=0.25;exitY=1;exitDx=0;exitDy=0;" parent="1" source="6euIK-9lR_IWJC9QJkAk-46" edge="1">
          <mxGeometry relative="1" as="geometry">
            <mxPoint x="1800" y="-1800" as="targetPoint" />
          </mxGeometry>
        </mxCell>
        <mxCell id="6euIK-9lR_IWJC9QJkAk-46" value="Fenimino" style="rounded=0;whiteSpace=wrap;html=1;strokeWidth=9;fontSize=25;" parent="1" vertex="1">
          <mxGeometry x="1740" y="-1910" width="280" height="60" as="geometry" />
        </mxCell>
        <mxCell id="6euIK-9lR_IWJC9QJkAk-58" value="&lt;font style=&quot;font-size: 25px;&quot;&gt;-Burro&lt;br&gt;&lt;/font&gt;&lt;div&gt;&lt;font style=&quot;font-size: 25px;&quot;&gt;-Gatos De Botas&lt;/font&gt;&lt;/div&gt;&lt;div&gt;&lt;font style=&quot;font-size: 25px;&quot;&gt;-Trẽs Pouquinhos&lt;/font&gt;&lt;/div&gt;&lt;div&gt;&lt;font style=&quot;font-size: 25px;&quot;&gt;-&lt;/font&gt;&lt;br&gt;&lt;div class=&quot;QpPSMb&quot;&gt;  &lt;div class=&quot;DoxwDb&quot;&gt;    &lt;div role=&quot;heading&quot; data-attrid=&quot;title&quot; aria-level=&quot;2&quot; class=&quot;PZPZlf ssJ7i B5dxMb&quot;&gt;Três Ratos Cegos&lt;/div&gt;  &lt;/div&gt;   &lt;/div&gt;&lt;/div&gt;" style="whiteSpace=wrap;html=1;aspect=fixed;" parent="1" vertex="1">
          <mxGeometry x="440" y="-1990" width="860" height="860" as="geometry" />
        </mxCell>
        <mxCell id="6euIK-9lR_IWJC9QJkAk-59" value="Pinóquio" style="whiteSpace=wrap;html=1;aspect=fixed;fontSize=27;" parent="1" vertex="1">
          <mxGeometry x="1370" y="-1780" width="170" height="170" as="geometry" />
        </mxCell>
      </root>
    </mxGraphModel>
  </diagram>
</mxfile>
